<svg xmlns="http://www.w3.org/2000/svg" xmlns:xlink="http://www.w3.org/1999/xlink" width="500" zoomAndPan="magnify" viewBox="0 0 375 374.999991" height="500" preserveAspectRatio="xMidYMid meet" version="1.0"><defs><g/></defs><g fill="#002d72" fill-opacity="1"><g transform="translate(26.535393, 155.562491)"><g><path d="M 27.4375 -9.34375 C 29.019531 -9.34375 30.550781 -9.582031 32.03125 -10.0625 C 33.519531 -10.539062 34.613281 -11 35.3125 -11.4375 L 36.359375 -12.15625 L 40.75 -3.359375 C 40.601562 -3.242188 40.398438 -3.09375 40.140625 -2.90625 C 39.890625 -2.726562 39.296875 -2.390625 38.359375 -1.890625 C 37.421875 -1.398438 36.421875 -0.972656 35.359375 -0.609375 C 34.296875 -0.242188 32.898438 0.0820312 31.171875 0.375 C 29.453125 0.675781 27.675781 0.828125 25.84375 0.828125 C 21.632812 0.828125 17.640625 -0.207031 13.859375 -2.28125 C 10.078125 -4.351562 7.03125 -7.203125 4.71875 -10.828125 C 2.414062 -14.460938 1.265625 -18.390625 1.265625 -22.609375 C 1.265625 -25.796875 1.941406 -28.851562 3.296875 -31.78125 C 4.648438 -34.71875 6.453125 -37.226562 8.703125 -39.3125 C 10.960938 -41.40625 13.597656 -43.078125 16.609375 -44.328125 C 19.617188 -45.578125 22.695312 -46.203125 25.84375 -46.203125 C 28.78125 -46.203125 31.484375 -45.851562 33.953125 -45.15625 C 36.429688 -44.457031 38.1875 -43.757812 39.21875 -43.0625 L 40.75 -42.015625 L 36.359375 -33.21875 C 36.097656 -33.4375 35.710938 -33.703125 35.203125 -34.015625 C 34.691406 -34.328125 33.664062 -34.738281 32.125 -35.25 C 30.582031 -35.769531 29.019531 -36.03125 27.4375 -36.03125 C 24.945312 -36.03125 22.710938 -35.625 20.734375 -34.8125 C 18.753906 -34.007812 17.1875 -32.945312 16.03125 -31.625 C 14.875 -30.300781 13.992188 -28.878906 13.390625 -27.359375 C 12.785156 -25.835938 12.484375 -24.289062 12.484375 -22.71875 C 12.484375 -19.269531 13.773438 -16.175781 16.359375 -13.4375 C 18.941406 -10.707031 22.632812 -9.34375 27.4375 -9.34375 Z M 27.4375 -9.34375 "/></g></g></g><g fill="#002d72" fill-opacity="1"><g transform="translate(72.127381, 155.562491)"><g><path d="M 13.640625 -45.375 L 13.640625 -9.078125 L 29.265625 -9.078125 L 29.265625 0 L 3.296875 0 L 3.296875 -45.375 Z M 13.640625 -45.375 "/></g></g></g><g fill="#002d72" fill-opacity="1"><g transform="translate(107.380114, 155.562491)"><g><path d="M 29.265625 -45.375 L 29.265625 -36.296875 L 13.640625 -36.296875 L 13.640625 -27.28125 L 28.59375 -27.28125 L 28.59375 -18.203125 L 13.640625 -18.203125 L 13.640625 -9.078125 L 29.265625 -9.078125 L 29.265625 0 L 3.296875 0 L 3.296875 -45.375 Z M 29.265625 -45.375 "/></g></g></g><g fill="#002d72" fill-opacity="1"><g transform="translate(143.457794, 155.562491)"><g><path d="M 26.34375 -45.375 L 44.65625 0 L 33.546875 0 L 30.1875 -9.078125 L 12.921875 -9.078125 L 9.5625 0 L -1.546875 0 L 16.78125 -45.375 Z M 26.671875 -18.15625 L 21.609375 -31.34375 L 21.5 -31.34375 L 16.4375 -18.15625 Z M 26.671875 -18.15625 "/></g></g></g><g fill="#002d72" fill-opacity="1"><g transform="translate(190.754655, 155.562491)"><g><path d="M 13.640625 -28.15625 L 13.640625 0 L 3.296875 0 L 3.296875 -45.375 L 13.640625 -45.375 L 31.6875 -17.21875 L 31.796875 -17.21875 L 31.796875 -45.375 L 42.125 -45.375 L 42.125 0 L 31.796875 0 L 13.75 -28.15625 Z M 13.640625 -28.15625 "/></g></g></g><g fill="#002d72" fill-opacity="1"><g transform="translate(240.361345, 155.562491)"><g><path d="M 13.640625 -45.375 L 13.640625 0 L 3.296875 0 L 3.296875 -45.375 Z M 13.640625 -45.375 "/></g></g></g><g fill="#002d72" fill-opacity="1"><g transform="translate(261.480111, 155.562491)"><g><path d="M 13.640625 -28.15625 L 13.640625 0 L 3.296875 0 L 3.296875 -45.375 L 13.640625 -45.375 L 31.6875 -17.21875 L 31.796875 -17.21875 L 31.796875 -45.375 L 42.125 -45.375 L 42.125 0 L 31.796875 0 L 13.75 -28.15625 Z M 13.640625 -28.15625 "/></g></g></g><g fill="#002d72" fill-opacity="1"><g transform="translate(311.086812, 155.562491)"><g><path d="M 44.328125 -25.40625 L 44.328125 -15.5625 C 43.148438 -10.175781 40.582031 -6.097656 36.625 -3.328125 C 32.664062 -0.554688 28.25 0.828125 23.375 0.828125 C 17.25 0.828125 12.03125 -1.460938 7.71875 -6.046875 C 3.414062 -10.628906 1.265625 -16.164062 1.265625 -22.65625 C 1.265625 -29.257812 3.375 -34.832031 7.59375 -39.375 C 11.8125 -43.925781 17.070312 -46.203125 23.375 -46.203125 C 30.75 -46.203125 36.578125 -43.613281 40.859375 -38.4375 L 34.09375 -31.015625 C 31.675781 -34.898438 28.304688 -36.84375 23.984375 -36.84375 C 20.785156 -36.84375 18.0625 -35.457031 15.8125 -32.6875 C 13.5625 -29.925781 12.4375 -26.582031 12.4375 -22.65625 C 12.4375 -18.8125 13.5625 -15.519531 15.8125 -12.78125 C 18.0625 -10.050781 20.785156 -8.6875 23.984375 -8.6875 C 26.617188 -8.6875 28.914062 -9.484375 30.875 -11.078125 C 32.84375 -12.671875 33.828125 -14.789062 33.828125 -17.4375 L 23.375 -17.4375 L 23.375 -25.40625 Z M 44.328125 -25.40625 "/></g></g></g><g fill="#ff8f1c" fill-opacity="1"><g transform="translate(26.320394, 215.624986)"><g><path d="M 38.3125 -42.703125 L 38.3125 0 L 28.734375 0 L 28.734375 -17.6875 L 12.6875 -17.6875 L 12.6875 0 L 3.171875 0 L 3.171875 -42.703125 L 12.6875 -42.703125 L 12.6875 -25.125 L 28.734375 -25.125 L 28.734375 -42.703125 Z M 38.3125 -42.703125 "/></g></g></g><g fill="#ff8f1c" fill-opacity="1"><g transform="translate(67.797751, 215.624986)"><g><path d="M 12.75 -34.40625 L 12.75 -25.3125 L 28.96875 -25.3125 L 28.96875 -17.9375 L 12.75 -17.9375 L 12.75 -8.296875 L 32.03125 -8.296875 L 32.03125 0 L 3.171875 0 L 3.171875 -42.703125 L 32.03125 -42.703125 L 32.03125 -34.40625 Z M 12.75 -34.40625 "/></g></g></g><g fill="#ff8f1c" fill-opacity="1"><g transform="translate(102.321552, 215.624986)"><g><path d="M 17.5625 -14.9375 L 12.625 -14.9375 L 12.625 0 L 3.171875 0 L 3.171875 -42.703125 L 19.390625 -42.703125 C 22.773438 -42.703125 25.632812 -42.050781 27.96875 -40.75 C 30.300781 -39.445312 32.035156 -37.726562 33.171875 -35.59375 C 34.316406 -33.457031 34.890625 -31.148438 34.890625 -28.671875 C 34.890625 -25.898438 34.195312 -23.40625 32.8125 -21.1875 C 31.4375 -18.976562 29.40625 -17.320312 26.71875 -16.21875 L 35.875 0 L 25.921875 0 Z M 12.625 -22.6875 L 17.875 -22.6875 C 20.070312 -22.6875 21.921875 -23.144531 23.421875 -24.0625 C 24.929688 -24.976562 25.6875 -26.515625 25.6875 -28.671875 C 25.6875 -30.742188 24.941406 -32.21875 23.453125 -33.09375 C 21.972656 -33.96875 20.113281 -34.40625 17.875 -34.40625 L 12.625 -34.40625 Z M 12.625 -22.6875 "/></g></g></g><g fill="#ff8f1c" fill-opacity="1"><g transform="translate(139.407193, 215.624986)"><g><path d="M 22.015625 0.546875 C 17.742188 0.546875 14.125 -0.4375 11.15625 -2.40625 C 8.1875 -4.382812 5.957031 -7.03125 4.46875 -10.34375 C 2.988281 -13.65625 2.25 -17.320312 2.25 -21.34375 C 2.25 -25.375 3 -29.078125 4.5 -32.453125 C 6.007812 -35.828125 8.25 -38.519531 11.21875 -40.53125 C 14.1875 -42.539062 17.785156 -43.546875 22.015625 -43.546875 C 26.171875 -43.546875 29.722656 -42.550781 32.671875 -40.5625 C 35.617188 -38.570312 37.832031 -35.878906 39.3125 -32.484375 C 40.800781 -29.085938 41.546875 -25.351562 41.546875 -21.28125 C 41.546875 -17.21875 40.800781 -13.53125 39.3125 -10.21875 C 37.832031 -6.90625 35.617188 -4.28125 32.671875 -2.34375 C 29.722656 -0.414062 26.171875 0.546875 22.015625 0.546875 Z M 21.953125 -7.9375 C 24.960938 -7.9375 27.289062 -9.210938 28.9375 -11.765625 C 30.59375 -14.328125 31.421875 -17.539062 31.421875 -21.40625 C 31.421875 -25.226562 30.601562 -28.460938 28.96875 -31.109375 C 27.34375 -33.753906 25.003906 -35.078125 21.953125 -35.078125 C 19.878906 -35.078125 18.117188 -34.445312 16.671875 -33.1875 C 15.234375 -31.925781 14.160156 -30.257812 13.453125 -28.1875 C 12.742188 -26.113281 12.390625 -23.851562 12.390625 -21.40625 C 12.390625 -17.625 13.210938 -14.429688 14.859375 -11.828125 C 16.503906 -9.234375 18.867188 -7.9375 21.953125 -7.9375 Z M 21.953125 -7.9375 "/></g></g></g><g fill="#002d72" fill-opacity="1"><g transform="translate(195.102707, 205.112507)"><g><path d="M 9.96875 -8.6875 C 10.519531 -8.6875 11.019531 -8.707031 11.46875 -8.75 C 11.925781 -8.800781 12.40625 -8.875 12.90625 -8.96875 L 13.125 -7.015625 C 12.65625 -6.929688 12.1875 -6.867188 11.71875 -6.828125 C 11.25 -6.796875 10.765625 -6.78125 10.265625 -6.78125 C 9.503906 -6.78125 8.703125 -6.847656 7.859375 -6.984375 C 7.023438 -7.117188 6.3125 -7.285156 5.71875 -7.484375 C 5.363281 -7.242188 4.960938 -7.023438 4.515625 -6.828125 C 5.242188 -5.890625 6.109375 -4.925781 7.109375 -3.9375 C 8.109375 -2.945312 9.160156 -2.015625 10.265625 -1.140625 L 8.796875 0.328125 C 7.796875 -0.554688 6.847656 -1.445312 5.953125 -2.34375 C 5.054688 -3.25 4.265625 -4.09375 3.578125 -4.875 C 2.898438 -5.65625 2.363281 -6.332031 1.96875 -6.90625 C 1.570312 -7.46875 1.320312 -7.910156 1.21875 -8.234375 C 1.125 -8.554688 1.078125 -8.875 1.078125 -9.1875 C 1.078125 -9.519531 1.210938 -9.835938 1.484375 -10.140625 C 1.753906 -10.453125 2.195312 -10.609375 2.8125 -10.609375 C 3.257812 -10.609375 3.648438 -10.503906 3.984375 -10.296875 C 4.316406 -10.085938 4.617188 -9.804688 4.890625 -9.453125 C 5.265625 -9.796875 5.519531 -10.234375 5.65625 -10.765625 C 5.789062 -11.296875 5.859375 -11.828125 5.859375 -12.359375 C 5.859375 -12.898438 5.816406 -13.382812 5.734375 -13.8125 C 5.648438 -14.25 5.546875 -14.601562 5.421875 -14.875 L 0 -14.875 L 0 -16.796875 L 10.875 -16.796875 L 10.875 -14.875 L 7.59375 -14.875 C 7.71875 -14.570312 7.820312 -14.210938 7.90625 -13.796875 C 8 -13.378906 8.046875 -12.898438 8.046875 -12.359375 C 8.046875 -11.609375 7.957031 -10.953125 7.78125 -10.390625 C 7.613281 -9.835938 7.378906 -9.367188 7.078125 -8.984375 C 8.015625 -8.785156 8.976562 -8.6875 9.96875 -8.6875 Z M 9.96875 -8.6875 "/></g></g></g><g fill="#002d72" fill-opacity="1"><g transform="translate(205.601116, 205.112507)"><g><path d="M 15.421875 -14.875 L 12.609375 -14.875 L 12.609375 0 L 10.453125 0 L 10.453125 -4.453125 C 9.984375 -4.128906 9.410156 -3.835938 8.734375 -3.578125 C 8.054688 -3.316406 7.242188 -3.1875 6.296875 -3.1875 C 5.316406 -3.1875 4.441406 -3.375 3.671875 -3.75 C 2.910156 -4.125 2.3125 -4.648438 1.875 -5.328125 C 1.445312 -6.003906 1.234375 -6.800781 1.234375 -7.71875 C 1.234375 -9.269531 1.75 -10.457031 2.78125 -11.28125 C 3.820312 -12.113281 5.191406 -12.53125 6.890625 -12.53125 C 7.117188 -12.53125 7.40625 -12.515625 7.75 -12.484375 C 8.101562 -12.460938 8.445312 -12.425781 8.78125 -12.375 C 9.113281 -12.332031 9.375 -12.296875 9.5625 -12.265625 L 9.421875 -10.28125 C 9.078125 -10.351562 8.6875 -10.414062 8.25 -10.46875 C 7.820312 -10.53125 7.40625 -10.5625 7 -10.5625 C 5.875 -10.5625 4.992188 -10.316406 4.359375 -9.828125 C 3.734375 -9.335938 3.421875 -8.644531 3.421875 -7.75 C 3.421875 -6.832031 3.703125 -6.15625 4.265625 -5.71875 C 4.835938 -5.289062 5.53125 -5.078125 6.34375 -5.078125 C 7.28125 -5.078125 8.085938 -5.28125 8.765625 -5.6875 C 9.441406 -6.09375 10.003906 -6.535156 10.453125 -7.015625 L 10.453125 -14.875 L 0 -14.875 L 0 -16.796875 L 15.421875 -16.796875 Z M 15.421875 -14.875 "/></g></g></g><g fill="#002d72" fill-opacity="1"><g transform="translate(220.606562, 205.112507)"><g><path d="M 0 -16.796875 L 30.265625 -16.796875 L 30.265625 -14.875 L 25.40625 -14.875 L 25.40625 -12.875 C 26.320312 -12.644531 27.082031 -12.148438 27.6875 -11.390625 C 28.289062 -10.640625 28.59375 -9.613281 28.59375 -8.3125 C 28.59375 -7.269531 28.367188 -6.253906 27.921875 -5.265625 C 27.472656 -4.273438 26.828125 -3.382812 25.984375 -2.59375 C 25.148438 -1.800781 24.140625 -1.171875 22.953125 -0.703125 C 21.765625 -0.234375 20.429688 0 18.953125 0 C 17.203125 0 15.882812 -0.367188 15 -1.109375 C 14.125 -1.847656 13.6875 -2.800781 13.6875 -3.96875 C 13.6875 -4.34375 13.753906 -4.734375 13.890625 -5.140625 C 14.023438 -5.546875 14.238281 -5.910156 14.53125 -6.234375 C 13.769531 -6.597656 13.175781 -7.070312 12.75 -7.65625 C 12.332031 -8.238281 12.125 -8.914062 12.125 -9.6875 C 12.125 -10.769531 12.523438 -11.597656 13.328125 -12.171875 C 14.140625 -12.753906 15.207031 -13.046875 16.53125 -13.046875 C 16.832031 -13.046875 17.210938 -13.019531 17.671875 -12.96875 C 18.128906 -12.925781 18.484375 -12.859375 18.734375 -12.765625 L 18.578125 -10.90625 C 18.328125 -10.976562 18.039062 -11.046875 17.71875 -11.109375 C 17.40625 -11.171875 17.0625 -11.203125 16.6875 -11.203125 C 15.101562 -11.203125 14.3125 -10.617188 14.3125 -9.453125 C 14.3125 -8.929688 14.507812 -8.523438 14.90625 -8.234375 C 15.300781 -7.941406 15.804688 -7.726562 16.421875 -7.59375 C 16.941406 -7.75 17.515625 -7.828125 18.140625 -7.828125 C 18.335938 -7.828125 18.546875 -7.816406 18.765625 -7.796875 C 18.984375 -7.785156 19.15625 -7.769531 19.28125 -7.75 L 19.109375 -5.859375 C 19.003906 -5.878906 18.882812 -5.890625 18.75 -5.890625 C 18.613281 -5.890625 18.5 -5.890625 18.40625 -5.890625 C 16.71875 -5.890625 15.875 -5.257812 15.875 -4 C 15.875 -3.28125 16.148438 -2.75 16.703125 -2.40625 C 17.265625 -2.0625 18.015625 -1.890625 18.953125 -1.890625 C 20.316406 -1.890625 21.570312 -2.171875 22.71875 -2.734375 C 23.863281 -3.304688 24.769531 -4.078125 25.4375 -5.046875 C 26.113281 -6.015625 26.453125 -7.125 26.453125 -8.375 C 26.453125 -9.195312 26.242188 -9.890625 25.828125 -10.453125 C 25.421875 -11.023438 24.847656 -11.3125 24.109375 -11.3125 C 23.492188 -11.3125 23.054688 -11.148438 22.796875 -10.828125 C 22.535156 -10.503906 22.40625 -10.117188 22.40625 -9.671875 C 22.40625 -9.085938 22.640625 -8.5625 23.109375 -8.09375 C 23.578125 -7.625 24.34375 -7.273438 25.40625 -7.046875 L 24.515625 -5.34375 C 23.054688 -5.757812 21.992188 -6.335938 21.328125 -7.078125 C 20.660156 -7.828125 20.328125 -8.671875 20.328125 -9.609375 C 20.328125 -10.472656 20.570312 -11.210938 21.0625 -11.828125 C 21.5625 -12.441406 22.289062 -12.828125 23.25 -12.984375 L 23.25 -14.875 L 0 -14.875 Z M 13.640625 -5.34375 C 12.984375 -4.769531 12.253906 -4.265625 11.453125 -3.828125 C 10.660156 -3.398438 9.695312 -3.1875 8.5625 -3.1875 C 7.175781 -3.1875 6.035156 -3.570312 5.140625 -4.34375 C 4.253906 -5.125 3.8125 -6.148438 3.8125 -7.421875 C 3.8125 -7.941406 3.921875 -8.425781 4.140625 -8.875 C 4.367188 -9.332031 4.65625 -9.710938 5 -10.015625 L 1.03125 -9.96875 L 1.03125 -11.90625 L 8.9375 -11.90625 C 9.257812 -11.90625 9.578125 -11.898438 9.890625 -11.890625 C 10.210938 -11.878906 10.414062 -11.875 10.5 -11.875 L 10.3125 -9.984375 L 9.453125 -9.984375 C 8.410156 -9.984375 7.566406 -9.765625 6.921875 -9.328125 C 6.285156 -8.890625 5.96875 -8.242188 5.96875 -7.390625 C 5.96875 -6.617188 6.226562 -6.039062 6.75 -5.65625 C 7.269531 -5.269531 7.875 -5.078125 8.5625 -5.078125 C 9.40625 -5.078125 10.128906 -5.253906 10.734375 -5.609375 C 11.347656 -5.972656 11.882812 -6.378906 12.34375 -6.828125 Z M 13.640625 -5.34375 "/></g></g></g><g fill="#002d72" fill-opacity="1"><g transform="translate(250.455521, 205.112507)"><g><path d="M 12.984375 -14.875 L 12.984375 0 L 10.796875 0 L 10.796875 -8.859375 L 7.859375 -8.859375 C 6.753906 -8.859375 5.925781 -8.800781 5.375 -8.6875 C 4.832031 -8.582031 4.390625 -8.378906 4.046875 -8.078125 C 3.617188 -7.734375 3.40625 -7.175781 3.40625 -6.40625 C 3.40625 -5.519531 3.738281 -4.664062 4.40625 -3.84375 C 5.070312 -3.03125 6.039062 -2.109375 7.3125 -1.078125 L 5.859375 0.328125 C 5.015625 -0.390625 4.238281 -1.109375 3.53125 -1.828125 C 2.832031 -2.554688 2.269531 -3.304688 1.84375 -4.078125 C 1.425781 -4.847656 1.21875 -5.664062 1.21875 -6.53125 C 1.21875 -7.144531 1.335938 -7.707031 1.578125 -8.21875 C 1.816406 -8.726562 2.128906 -9.148438 2.515625 -9.484375 C 3.035156 -9.929688 3.664062 -10.253906 4.40625 -10.453125 C 5.144531 -10.660156 6.125 -10.765625 7.34375 -10.765625 L 10.796875 -10.765625 L 10.796875 -14.875 L 0 -14.875 L 0 -16.796875 L 15.765625 -16.796875 L 15.765625 -14.875 Z M 12.984375 -14.875 "/></g></g></g><g fill="#002d72" fill-opacity="1"><g transform="translate(265.838794, 205.112507)"><g><path d="M 4.59375 -14.875 L 4.59375 0 L 2.40625 0 L 2.40625 -14.875 L 0 -14.875 L 0 -16.796875 L 7.375 -16.796875 L 7.375 -14.875 Z M 4.59375 -14.875 "/></g></g></g><g fill="#002d72" fill-opacity="1"><g transform="translate(272.828742, 205.112507)"><g/></g></g><g fill="#002d72" fill-opacity="1"><g transform="translate(279.444033, 205.112507)"><g><path d="M 8.671875 -1.859375 C 9.316406 -2.054688 9.84375 -2.316406 10.25 -2.640625 C 10.664062 -2.960938 10.875 -3.414062 10.875 -4 C 10.875 -4.675781 10.613281 -5.207031 10.09375 -5.59375 C 9.570312 -5.988281 8.726562 -6.1875 7.5625 -6.1875 C 6.320312 -6.1875 5.367188 -5.925781 4.703125 -5.40625 C 4.046875 -4.894531 3.71875 -4.207031 3.71875 -3.34375 C 3.71875 -2.789062 3.820312 -2.25 4.03125 -1.71875 C 4.238281 -1.195312 4.660156 -0.617188 5.296875 0.015625 C 5.941406 0.648438 6.894531 1.445312 8.15625 2.40625 L 6.703125 3.828125 C 5.046875 2.554688 3.773438 1.359375 2.890625 0.234375 C 2.003906 -0.878906 1.5625 -2.128906 1.5625 -3.515625 C 1.5625 -4.191406 1.703125 -4.796875 1.984375 -5.328125 C 2.265625 -5.859375 2.640625 -6.316406 3.109375 -6.703125 C 2.765625 -7.023438 2.46875 -7.421875 2.21875 -7.890625 C 1.976562 -8.359375 1.859375 -8.894531 1.859375 -9.5 C 1.859375 -10.007812 1.945312 -10.441406 2.125 -10.796875 C 2.3125 -11.160156 2.554688 -11.457031 2.859375 -11.6875 C 3.253906 -12 3.722656 -12.222656 4.265625 -12.359375 C 4.804688 -12.492188 5.445312 -12.5625 6.1875 -12.5625 L 9.75 -12.5625 L 9.75 -14.875 L 0 -14.875 L 0 -16.796875 L 14.734375 -16.796875 L 14.734375 -14.875 L 11.9375 -14.875 L 11.9375 -10.640625 L 6.203125 -10.640625 C 5.648438 -10.640625 5.253906 -10.609375 5.015625 -10.546875 C 4.785156 -10.492188 4.585938 -10.40625 4.421875 -10.28125 C 4.148438 -10.070312 4.015625 -9.769531 4.015625 -9.375 C 4.015625 -9.007812 4.101562 -8.6875 4.28125 -8.40625 C 4.46875 -8.125 4.6875 -7.878906 4.9375 -7.671875 C 5.78125 -7.953125 6.691406 -8.09375 7.671875 -8.09375 C 8.890625 -8.09375 9.894531 -7.90625 10.6875 -7.53125 C 11.476562 -7.15625 12.054688 -6.660156 12.421875 -6.046875 C 12.796875 -5.429688 12.984375 -4.789062 12.984375 -4.125 C 12.984375 -3.0625 12.671875 -2.191406 12.046875 -1.515625 C 11.429688 -0.847656 10.546875 -0.359375 9.390625 -0.046875 Z M 8.671875 -1.859375 "/></g></g></g><g fill="#002d72" fill-opacity="1"><g transform="translate(293.774771, 205.112507)"><g><path d="M -5 -16.609375 C -5.300781 -17.234375 -5.53125 -17.832031 -5.6875 -18.40625 C -5.851562 -18.988281 -5.9375 -19.585938 -5.9375 -20.203125 C -5.9375 -21.347656 -5.554688 -22.296875 -4.796875 -23.046875 C -4.046875 -23.804688 -2.992188 -24.1875 -1.640625 -24.1875 C -0.566406 -24.1875 0.328125 -23.929688 1.046875 -23.421875 C 1.773438 -22.910156 2.398438 -22.109375 2.921875 -21.015625 C 3.441406 -19.929688 3.9375 -18.523438 4.40625 -16.796875 L 7.375 -16.796875 L 7.375 -14.875 L 4.59375 -14.875 L 4.59375 0 L 2.40625 0 L 2.40625 -14.875 L 0 -14.875 L 0 -16.796875 L 2.34375 -16.796875 C 1.84375 -18.671875 1.316406 -20.050781 0.765625 -20.9375 C 0.222656 -21.832031 -0.539062 -22.28125 -1.53125 -22.28125 C -2.257812 -22.28125 -2.8125 -22.054688 -3.1875 -21.609375 C -3.5625 -21.171875 -3.75 -20.566406 -3.75 -19.796875 C -3.75 -19.179688 -3.660156 -18.625 -3.484375 -18.125 C -3.304688 -17.632812 -3.085938 -17.128906 -2.828125 -16.609375 Z M -5 -16.609375 "/></g></g></g><g fill="#002d72" fill-opacity="1"><g transform="translate(300.764718, 205.112507)"><g/></g></g><g fill="#002d72" fill-opacity="1"><g transform="translate(307.380009, 205.112507)"><g><path d="M 15.84375 -14.875 L 15.84375 0 L 13.65625 0 L 13.65625 -7.1875 C 13.132812 -7.019531 12.613281 -6.910156 12.09375 -6.859375 C 11.570312 -6.804688 10.960938 -6.78125 10.265625 -6.78125 C 9.503906 -6.78125 8.703125 -6.847656 7.859375 -6.984375 C 7.023438 -7.117188 6.3125 -7.285156 5.71875 -7.484375 C 5.363281 -7.242188 4.960938 -7.023438 4.515625 -6.828125 C 5.242188 -5.890625 6.109375 -4.925781 7.109375 -3.9375 C 8.109375 -2.945312 9.160156 -2.015625 10.265625 -1.140625 L 8.796875 0.328125 C 7.796875 -0.554688 6.847656 -1.445312 5.953125 -2.34375 C 5.054688 -3.25 4.265625 -4.09375 3.578125 -4.875 C 2.898438 -5.65625 2.363281 -6.332031 1.96875 -6.90625 C 1.570312 -7.46875 1.320312 -7.910156 1.21875 -8.234375 C 1.125 -8.554688 1.078125 -8.875 1.078125 -9.1875 C 1.078125 -9.519531 1.210938 -9.835938 1.484375 -10.140625 C 1.753906 -10.453125 2.195312 -10.609375 2.8125 -10.609375 C 3.257812 -10.609375 3.648438 -10.503906 3.984375 -10.296875 C 4.316406 -10.085938 4.617188 -9.804688 4.890625 -9.453125 C 5.265625 -9.796875 5.519531 -10.234375 5.65625 -10.765625 C 5.789062 -11.296875 5.859375 -11.828125 5.859375 -12.359375 C 5.859375 -12.898438 5.816406 -13.382812 5.734375 -13.8125 C 5.648438 -14.25 5.546875 -14.601562 5.421875 -14.875 L 0 -14.875 L 0 -16.796875 L 18.65625 -16.796875 L 18.65625 -14.875 Z M 9.96875 -8.6875 C 10.664062 -8.6875 11.300781 -8.722656 11.875 -8.796875 C 12.457031 -8.867188 13.050781 -8.988281 13.65625 -9.15625 L 13.65625 -14.875 L 7.59375 -14.875 C 7.71875 -14.570312 7.820312 -14.210938 7.90625 -13.796875 C 8 -13.378906 8.046875 -12.898438 8.046875 -12.359375 C 8.046875 -11.609375 7.957031 -10.953125 7.78125 -10.390625 C 7.613281 -9.835938 7.378906 -9.367188 7.078125 -8.984375 C 8.015625 -8.785156 8.976562 -8.6875 9.96875 -8.6875 Z M 9.96875 -8.6875 "/></g></g></g><g fill="#002d72" fill-opacity="1"><g transform="translate(325.624041, 205.112507)"><g><path d="M -4.5625 -16.609375 C -4.9375 -18.023438 -5.304688 -19.140625 -5.671875 -19.953125 C -6.046875 -20.773438 -6.457031 -21.359375 -6.90625 -21.703125 C -7.363281 -22.046875 -7.894531 -22.21875 -8.5 -22.21875 C -8.914062 -22.21875 -9.269531 -22.175781 -9.5625 -22.09375 C -9.863281 -22.019531 -10.140625 -21.9375 -10.390625 -21.84375 L -11.046875 -23.8125 C -10.335938 -24.0625 -9.519531 -24.1875 -8.59375 -24.1875 C -7.613281 -24.1875 -6.769531 -23.957031 -6.0625 -23.5 C -5.351562 -23.039062 -4.710938 -22.257812 -4.140625 -21.15625 C -3.578125 -20.050781 -3.039062 -18.535156 -2.53125 -16.609375 Z M -4.5625 -16.609375 "/></g></g></g><g fill="#002d72" fill-opacity="1"><g transform="translate(325.624041, 205.112507)"><g><path d="M 15.421875 -14.875 L 12.609375 -14.875 L 12.609375 0 L 10.453125 0 L 10.453125 -4.453125 C 9.984375 -4.128906 9.410156 -3.835938 8.734375 -3.578125 C 8.054688 -3.316406 7.242188 -3.1875 6.296875 -3.1875 C 5.316406 -3.1875 4.441406 -3.375 3.671875 -3.75 C 2.910156 -4.125 2.3125 -4.648438 1.875 -5.328125 C 1.445312 -6.003906 1.234375 -6.800781 1.234375 -7.71875 C 1.234375 -9.269531 1.75 -10.457031 2.78125 -11.28125 C 3.820312 -12.113281 5.191406 -12.53125 6.890625 -12.53125 C 7.117188 -12.53125 7.40625 -12.515625 7.75 -12.484375 C 8.101562 -12.460938 8.445312 -12.425781 8.78125 -12.375 C 9.113281 -12.332031 9.375 -12.296875 9.5625 -12.265625 L 9.421875 -10.28125 C 9.078125 -10.351562 8.6875 -10.414062 8.25 -10.46875 C 7.820312 -10.53125 7.40625 -10.5625 7 -10.5625 C 5.875 -10.5625 4.992188 -10.316406 4.359375 -9.828125 C 3.734375 -9.335938 3.421875 -8.644531 3.421875 -7.75 C 3.421875 -6.832031 3.703125 -6.15625 4.265625 -5.71875 C 4.835938 -5.289062 5.53125 -5.078125 6.34375 -5.078125 C 7.28125 -5.078125 8.085938 -5.28125 8.765625 -5.6875 C 9.441406 -6.09375 10.003906 -6.535156 10.453125 -7.015625 L 10.453125 -14.875 L 0 -14.875 L 0 -16.796875 L 15.421875 -16.796875 Z M 15.421875 -14.875 "/></g></g></g><g fill="#002d72" fill-opacity="1"><g transform="translate(340.629488, 205.112507)"><g><path d="M 4.59375 -14.875 L 4.59375 0 L 2.40625 0 L 2.40625 -14.875 L 0 -14.875 L 0 -16.796875 L 7.375 -16.796875 L 7.375 -14.875 Z M 4.59375 -14.875 "/></g></g></g></svg>